<?xml version="1.0" encoding="utf-8"?>
<!-- Generator: Adobe Illustrator 22.0.1, SVG Export Plug-In . SVG Version: 6.00 Build 0)  -->
<svg version="1.1" id="Layer_1" xmlns="http://www.w3.org/2000/svg" xmlns:xlink="http://www.w3.org/1999/xlink" x="0px" y="0px"
	 viewBox="0 0 1664 2048" style="enable-background:new 0 0 1664 2048;" xml:space="preserve">
<style type="text/css">
	.st0{fill:#979590;}
</style>
<path class="st0" d="M128,1792h288v-288H128V1792z M480,1792h320v-288H480V1792z M128,1440h288v-320H128V1440z M480,1440h320v-320
	H480V1440z M128,1056h288V768H128V1056z M864,1792h320v-288H864V1792z M480,1056h320V768H480V1056z M1248,1792h288v-288h-288V1792z
	 M864,1440h320v-320H864V1440z M512,576V288c0-8.7-3.2-16.2-9.5-22.5S488.7,256,480,256h-64c-8.7,0-16.2,3.2-22.5,9.5
	S384,279.3,384,288v288c0,8.7,3.2,16.2,9.5,22.5s13.8,9.5,22.5,9.5h64c8.7,0,16.2-3.2,22.5-9.5S512,584.7,512,576z M1248,1440h288
	v-320h-288V1440z M864,1056h320V768H864V1056z M1248,1056h288V768h-288V1056z M1280,576V288c0-8.7-3.2-16.2-9.5-22.5
	s-13.8-9.5-22.5-9.5h-64c-8.7,0-16.2,3.2-22.5,9.5s-9.5,13.8-9.5,22.5v288c0,8.7,3.2,16.2,9.5,22.5s13.8,9.5,22.5,9.5h64
	c8.7,0,16.2-3.2,22.5-9.5S1280,584.7,1280,576z M1664,512v1280c0,34.7-12.7,64.7-38,90s-55.3,38-90,38H128c-34.7,0-64.7-12.7-90-38
	s-38-55.3-38-90V512c0-34.7,12.7-64.7,38-90s55.3-38,90-38h128v-96c0-44,15.7-81.7,47-113s69-47,113-47h64c44,0,81.7,15.7,113,47
	s47,69,47,113v96h384v-96c0-44,15.7-81.7,47-113s69-47,113-47h64c44,0,81.7,15.7,113,47s47,69,47,113v96h128c34.7,0,64.7,12.7,90,38
	S1664,477.3,1664,512z"/>
</svg>
