<svg 
 xmlns="http://www.w3.org/2000/svg"
 xmlns:xlink="http://www.w3.org/1999/xlink"
 width="10px" height="14px">
<path fill-rule="evenodd"  fill="rgb(228, 75, 59)"
 d="M4.850,13.957 C4.584,13.948 2.173,13.999 0.708,11.922 C-0.756,9.845 0.353,7.850 1.300,6.818 C2.247,5.787 2.572,4.895 2.513,4.393 C2.454,3.891 2.395,3.640 2.395,3.640 C2.395,3.640 3.055,4.086 3.253,5.006 C3.450,5.927 3.341,6.651 3.341,6.651 C3.341,6.651 4.623,5.211 4.170,3.416 C3.716,1.623 2.335,0.991 2.335,0.991 C2.335,0.991 3.331,0.824 4.969,1.827 C6.606,2.831 7.917,5.146 8.105,6.595 C8.292,8.045 8.065,8.956 7.809,9.440 C7.829,9.431 8.489,9.226 8.904,8.129 C9.318,7.032 9.022,6.316 9.022,6.316 C9.022,6.316 9.969,7.460 9.998,8.966 C10.028,10.471 9.318,11.782 8.134,12.814 C6.951,13.845 5.117,13.966 4.850,13.957 Z"/>
</svg>