<?xml version="1.0" encoding="utf-8"?>
<!-- Generator: Adobe Illustrator 22.0.1, SVG Export Plug-In . SVG Version: 6.00 Build 0)  -->
<svg version="1.1" id="Layer_21" xmlns="http://www.w3.org/2000/svg" xmlns:xlink="http://www.w3.org/1999/xlink" x="0px" y="0px"
	 viewBox="0 0 24 24" style="enable-background:new 0 0 24 24;" xml:space="preserve">
<style type="text/css">
	.st0{fill:#FFFFFF;}
</style>
<title></title>
<path class="st0" d="M21.5,7h-3.3c-0.3,0-0.5,0.2-0.7,0.4c0,0-1.3,2.4-1.7,3.2c-1.1,2.2-1.9,1.5-1.9,0.5V7.6c0-0.6-0.5-1.1-1.1-1.1
	h-2.5C9.7,6.4,9.1,6.8,8.7,7.3c0,0,1.3-0.2,1.3,1.5c0,0.4,0,1.6,0,2.6c0,0.4-0.3,0.7-0.7,0.7c-0.2,0-0.4-0.1-0.6-0.2
	c-1-1.4-1.9-2.9-2.5-4.5C6.1,7.2,5.8,7,5.6,7c-0.7,0-2.1,0-3,0C2.3,7,2.1,7.2,2.1,7.5c0,0.1,0,0.1,0,0.2C3,10.2,6.9,18,11.4,18h1.9
	c0.4,0,0.7-0.3,0.7-0.7v-1.1c0-0.4,0.3-0.7,0.7-0.7c0.2,0,0.4,0.1,0.5,0.2l2.2,2.1c0.2,0.2,0.5,0.3,0.7,0.3h3c1.4,0,1.4-1,0.6-1.8
	c-0.5-0.5-2.5-2.6-2.5-2.6c-0.3-0.4-0.4-0.9-0.1-1.3c0.6-0.8,1.7-2.2,2.1-2.8C22,8.7,23,7,21.5,7z"/>
</svg>
