<?xml version="1.0" encoding="utf-8"?>
<!-- Generator: Adobe Illustrator 22.0.1, SVG Export Plug-In . SVG Version: 6.00 Build 0)  -->
<svg version="1.1" id="Capa_1" xmlns="http://www.w3.org/2000/svg" xmlns:xlink="http://www.w3.org/1999/xlink" x="0px" y="0px"
	 viewBox="0 0 30 30" style="enable-background:new 0 0 30 30;" xml:space="preserve">
<style type="text/css">
	.st0{fill:#ABC357;}
</style>
<path class="st0" d="M6.6,9.1c-0.4,0-0.7,0.3-0.7,0.7s0.3,0.7,0.7,0.7s0.7-0.3,0.7-0.7S7.1,9.1,6.6,9.1z M29.9,9.8
	c0-0.2-0.2-0.5-0.4-0.6c-0.2-0.1-0.5-0.1-0.7,0c-0.3,0.1-0.8,0.1-1,0.1l0,0c-2.3-3.3-6-4.9-10.9-4.9c-1.5,0-2.8,0.1-3.5,0.1
	C12.9,3.7,11.4,2,8.7,2C8.1,2,7.5,2,6.9,2.2C6.4,2.3,6.1,2.6,5.9,3C5.7,3.6,6.2,4.1,6.7,4.6C6.8,4.8,7,5,7.1,5.2
	C5.7,5.7,4.3,7.3,3.8,8.5H2H1.9c-0.9,0-1.7,0.6-1.7,1.9v4.2c0,0.8,0.5,1.6,1.7,1.6h0.6c0.4,5.3,5.5,8.4,7.3,8.5
	C9.9,25,9.6,25.8,9.5,26c-0.3,0.4-0.3,0.8-0.1,1.2c0.1,0.3,0.5,0.7,1.6,0.7h2.8c0.2,0,0.4-0.1,0.5-0.2c0,0,0.9-0.9,1.2-2.4
	c0.9,0.1,1.8,0.1,2.5,0l-0.2,0.8c0,0.1-0.2,0.7,0.2,1.2c0.2,0.2,0.5,0.5,1.1,0.5h2.6c0.2,0,0.3-0.1,0.5-0.2
	c0.3-0.2,6.6-5.1,7.3-11.2c0.3-2.4,0-3.8-0.1-4.4C29.5,11.8,30,10.9,29.9,9.8z M27.7,12.4c0,0,0.5,1.1,0.2,4.1
	c-0.6,4.9-5.5,9.2-6.5,10h-2.1l0.4-1.7c0.1-0.2,0-0.5-0.2-0.7s-0.4-0.3-0.7-0.2c0,0-0.8,0.1-1.9,0.1c-0.7,0-1.4,0-2-0.1
	c-0.2,0-0.4,0-0.6,0.2c-0.2,0.1-0.2,0.3-0.2,0.6c0,0.9-0.4,1.6-0.7,1.9h-2.5c0.3-0.7,0.5-1.8,0.2-2.5c-0.2-0.5-0.7-0.7-1.2-0.7
	c-0.9,0-6-2.8-6-7.8c0-0.4-0.3-0.8-0.8-0.8H1.8c-0.1,0-0.2,0-0.2-0.1v-4.2C1.6,10,1.8,10,1.9,10H2h2.4C4.7,10,5,9.8,5.1,9.4
	c0.2-0.9,1.9-3,3.1-3C8.6,6.4,9,6.1,9,5.6C9,4.7,8.4,4,7.9,3.5l0,0c0.1,0,0.5,0,0.8,0c2.6,0,3.6,2.1,3.7,2.1
	c0.1,0.3,0.4,0.5,0.8,0.4c0,0,1.8-0.2,3.8-0.2c4.4,0,7.7,1.4,9.6,4.3c0.1,0.2,0.2,0.3,0.3,0.3l0.1,0.1c0.3,0.2,0.7,0.3,1.3,0.3
	c-0.2,0.4-0.4,0.7-0.4,0.7C27.6,11.8,27.6,12.2,27.7,12.4z M20.5,7.3c-3.9-0.6-6.7-0.1-6.8-0.1c-0.4,0.1-0.7,0.5-0.6,0.9
	c0.1,0.4,0.5,0.7,0.9,0.6c0,0,2.6-0.5,6.3,0.1h0.1c0.4,0,0.7-0.3,0.7-0.6C21.2,7.7,20.9,7.3,20.5,7.3z"/>
</svg>
