<?xml version="1.0" encoding="utf-8"?>
<!-- Generator: Adobe Illustrator 22.0.1, SVG Export Plug-In . SVG Version: 6.00 Build 0)  -->
<svg version="1.1" id="Capa_1" xmlns="http://www.w3.org/2000/svg" xmlns:xlink="http://www.w3.org/1999/xlink" x="0px" y="0px"
	 viewBox="0 0 30 30" style="enable-background:new 0 0 30 30;" xml:space="preserve">
<style type="text/css">
	.st0{fill:#E2BC71;}
</style>
<path class="st0" d="M28.9,0.2c-0.2-0.1-0.5-0.2-0.7-0.1l-9.9,4.3L10,0.8c-0.2-0.1-0.4-0.1-0.6,0L1.2,4.6C0.9,4.7,0.8,5,0.8,5.3
	v23.9c0,0.3,0.1,0.5,0.4,0.6c0.1,0.1,0.3,0.1,0.4,0.1s0.2,0,0.3-0.1l7.9-3.9l8.2,3.8c0.2,0.1,0.4,0.1,0.6,0h0.1l0,0l10.1-4.2
	c0.3-0.1,0.5-0.4,0.5-0.7v-24C29.2,0.6,29.1,0.4,28.9,0.2z M8.8,24.7L2.2,28V5.8l6.6-3V24.7z M17.6,27.9l-7.3-3.3v-22l7.3,3.2V27.9z
	 M27.7,24.2l-8.6,3.6V5.7L27.7,2V24.2z"/>
</svg>
